<svg xmlns="http://www.w3.org/2000/svg" viewBox="0 0 32 32"><g id="_05.PLAYLIST" data-name="05.PLAYLIST"><path fill="#FFFFFF" d="M1.5,11.66a1,1,0,0,0,1,0l7.75-4.4a1,1,0,0,0,0-1.74L2.49,1.13A1,1,0,0,0,1,2v8.8A1,1,0,0,0,1.5,11.66ZM3,3.72,7.72,6.4,3,9.08Z"/><path fill="#FFFFFF" d="M14,7.4H30a1,1,0,0,0,0-2H14A1,1,0,0,0,14,7.4Z"/><path fill="#FFFFFF" d="M30,13.27H2a1,1,0,0,0,0,2H30A1,1,0,0,0,30,13.27Z"/><path fill="#FFFFFF" d="M30,21.13H2a1,1,0,0,0,0,2H30A1,1,0,0,0,30,21.13Z"/><path fill="#FFFFFF" d="M30,29H2a1,1,0,0,0,0,2H30A1,1,0,0,0,30,29Z"/></g></svg>